<?xml version="1.0" standalone="no"?>
<!DOCTYPE svg PUBLIC "-//W3C//DTD SVG 20010904//EN"
 "http://www.w3.org/TR/2001/REC-SVG-20010904/DTD/svg10.dtd">
<svg version="1.0" xmlns="http://www.w3.org/2000/svg"
 width="429.000000pt" height="398.000000pt" viewBox="0 0 429.000000 398.000000"
 preserveAspectRatio="xMidYMid meet">

<g transform="translate(0.000000,398.000000) scale(0.100000,-0.100000)"
fill="#000000" stroke="none">
<path d="M2947 3811 l-47 -6 0 -1820 c0 -1000 4 -1823 8 -1827 5 -5 127 -7
273 -6 l264 3 3 58 c3 54 1 58 -23 67 -15 6 -104 10 -199 10 -128 0 -176 3
-182 13 -5 6 -7 84 -4 172 l5 160 218 6 c119 3 220 9 224 13 10 10 14 2265 5
2486 l-7 175 -220 5 -220 5 -3 173 -2 172 434 -2 434 -3 6 -1085 c3 -597 6
-1343 6 -1657 l0 -573 65 0 65 0 0 1729 c0 1689 0 1729 -19 1734 -27 7 -1027
5 -1084 -2z"/>
<path d="M644 3652 l-171 -2 -7 -64 c-3 -35 -6 -782 -6 -1659 1 -1315 3 -1597
14 -1606 9 -8 134 -10 417 -9 l404 3 3 152 3 153 -133 2 c-233 4 -293 5 -310
7 -17 1 -18 73 -18 1351 0 1072 3 1351 13 1354 13 5 295 16 390 16 l57 0 0
150 0 150 -92 1 c-205 4 -402 4 -564 1z"/>
<path d="M1720 3264 c-74 -13 -145 -28 -157 -34 l-23 -10 0 -829 c0 -684 3
-850 15 -946 38 -292 160 -441 416 -511 76 -21 361 -24 444 -5 91 21 215 64
227 78 9 11 5 45 -16 151 -14 75 -31 141 -36 146 -5 5 -43 -1 -92 -14 -112
-32 -319 -40 -382 -16 -73 28 -127 90 -153 178 -23 74 -32 938 -11 956 9 7
121 13 321 18 l307 7 -2 156 -3 156 -306 3 c-229 2 -309 5 -317 15 -11 14 -21
200 -22 395 l0 132 -37 -1 c-21 0 -99 -12 -173 -25z"/>
</g>
</svg>
